# xmcd
#
# Track frame offsets: 
#        150
#        16498
#        32478
#        52518
#        69072
#        89641
#        104171
#        118024
#        134241
#        149764
#        173995
#
# Disc length: 2529 seconds
#
# Revision: 0
# Processed by: cddbd v1.5.2PL0 Copyright (c) Steve Scherf et al.
# Submitted via: ExactAudioCopy v1.3
#
DISCID=9f09df0b
DTITLE=Dave Keller - Every Soul's A Star
DYEAR=2018
DGENRE=Blues
TTITLE0=Don't Let Them Take Your Joy
TTITLE1=Every Soul's A Star
TTITLE2=Baby I Love You
TTITLE3=Old Tricks
TTITLE4=You Bring The Sunshine
TTITLE5=Freedom Is Ours
TTITLE6=This Is Gonna Hurt
TTITLE7=It's All In Your Eyes
TTITLE8=Kiss Me Like You Miss Me
TTITLE9=When Are You Gonna Cry
TTITLE10=Ain't Givin' In
EXTD=
EXTT0=
EXTT1=
EXTT2=
EXTT3=
EXTT4=
EXTT5=
EXTT6=
EXTT7=
EXTT8=
EXTT9=
EXTT10=
PLAYORDER=
